<svg width="26" height="26" viewBox="0 0 26 26" fill="none" xmlns="http://www.w3.org/2000/svg">
<g clip-path="url(#clip0_1_4)">
<path d="M-103.344 12.75C-103.344 18.0781 -107.254 22.5039 -112.367 23.2773V15.8438H-109.875L-109.402 12.75H-112.367V10.7734C-112.367 9.91406 -111.938 9.09766 -110.605 9.09766H-109.273V6.47656C-109.273 6.47656 -110.477 6.26172 -111.68 6.26172C-114.086 6.26172 -115.676 7.76562 -115.676 10.4297V12.75H-118.383V15.8438H-115.676V23.2773C-120.789 22.5039 -124.656 18.0781 -124.656 12.75C-124.656 6.86328 -119.887 2.09375 -114 2.09375C-108.113 2.09375 -103.344 6.86328 -103.344 12.75ZM-61.6773 8.28125C-61.6773 8.49609 -61.6773 8.66797 -61.6773 8.88281C-61.6773 14.8555 -66.1891 21.6875 -74.482 21.6875C-77.0602 21.6875 -79.4234 20.957 -81.4 19.668C-81.0563 19.7109 -80.7125 19.7539 -80.3258 19.7539C-78.2203 19.7539 -76.2867 19.0234 -74.7398 17.8203C-76.7164 17.7773 -78.3922 16.4883 -78.9508 14.6836C-78.65 14.7266 -78.3922 14.7695 -78.0914 14.7695C-77.7047 14.7695 -77.275 14.6836 -76.9313 14.5977C-78.9938 14.168 -80.5406 12.3633 -80.5406 10.1719V10.1289C-79.9391 10.4727 -79.2086 10.6445 -78.4781 10.6875C-79.7242 9.87109 -80.4977 8.49609 -80.4977 6.94922C-80.4977 6.08984 -80.2828 5.31641 -79.8961 4.67188C-77.6617 7.37891 -74.3102 9.18359 -70.5719 9.39844C-70.6578 9.05469 -70.7008 8.71094 -70.7008 8.36719C-70.7008 5.875 -68.6813 3.85547 -66.1891 3.85547C-64.9 3.85547 -63.7398 4.37109 -62.8805 5.27344C-61.8922 5.05859 -60.9039 4.67188 -60.0445 4.15625C-60.3883 5.23047 -61.0758 6.08984 -62.0211 6.64844C-61.1188 6.5625 -60.2164 6.30469 -59.443 5.96094C-60.0445 6.86328 -60.818 7.63672 -61.6773 8.28125ZM-28.175 7.80859C-25.468 7.80859 -23.2336 10.043 -23.2336 12.75C-23.2336 15.5 -25.468 17.6914 -28.175 17.6914C-30.925 17.6914 -33.1164 15.5 -33.1164 12.75C-33.1164 10.043 -30.925 7.80859 -28.175 7.80859ZM-28.175 15.9727C-26.4133 15.9727 -24.9953 14.5547 -24.9953 12.75C-24.9953 10.9883 -26.4133 9.57031 -28.175 9.57031C-29.9797 9.57031 -31.3977 10.9883 -31.3977 12.75C-31.3977 14.5547 -29.9367 15.9727 -28.175 15.9727ZM-21.9016 7.63672C-21.9016 8.28125 -22.4172 8.79688 -23.0617 8.79688C-23.7063 8.79688 -24.2219 8.28125 -24.2219 7.63672C-24.2219 6.99219 -23.7063 6.47656 -23.0617 6.47656C-22.4172 6.47656 -21.9016 6.99219 -21.9016 7.63672ZM-18.6359 8.79688C-18.55 10.3867 -18.55 15.1562 -18.6359 16.7461C-18.7219 18.293 -19.0656 19.625 -20.1828 20.7852C-21.3 21.9023 -22.675 22.2461 -24.2219 22.332C-25.8117 22.418 -30.5813 22.418 -32.1711 22.332C-33.718 22.2461 -35.05 21.9023 -36.2102 20.7852C-37.3273 19.625 -37.6711 18.293 -37.757 16.7461C-37.843 15.1562 -37.843 10.3867 -37.757 8.79688C-37.6711 7.25 -37.3273 5.875 -36.2102 4.75781C-35.05 3.64062 -33.718 3.29688 -32.1711 3.21094C-30.5813 3.125 -25.8117 3.125 -24.2219 3.21094C-22.675 3.29688 -21.3 3.64062 -20.1828 4.75781C-19.0656 5.875 -18.7219 7.25 -18.6359 8.79688ZM-20.6984 18.4219C-20.1828 17.1758 -20.3117 14.168 -20.3117 12.75C-20.3117 11.375 -20.1828 8.36719 -20.6984 7.07812C-21.0422 6.26172 -21.6867 5.57422 -22.5031 5.27344C-23.7922 4.75781 -26.8 4.88672 -28.175 4.88672C-29.593 4.88672 -32.6008 4.75781 -33.8469 5.27344C-34.7063 5.61719 -35.3508 6.26172 -35.6945 7.07812C-36.2102 8.36719 -36.0813 11.375 -36.0813 12.75C-36.0813 14.168 -36.2102 17.1758 -35.6945 18.4219C-35.3508 19.2812 -34.7063 19.9258 -33.8469 20.2695C-32.6008 20.7852 -29.593 20.6562 -28.175 20.6562C-26.8 20.6562 -23.7922 20.7852 -22.5031 20.2695C-21.6867 19.9258 -20.9992 19.2812 -20.6984 18.4219ZM7.34688 21H3.35078V8.15234H7.34688V21ZM5.32735 6.43359C4.08125 6.43359 3.05 5.35938 3.05 4.07031C3.05 2.82422 4.08125 1.79297 5.32735 1.79297C6.61641 1.79297 7.64766 2.82422 7.64766 4.07031C7.64766 5.35938 6.61641 6.43359 5.32735 6.43359ZM22.257 21H18.3039V14.7695C18.3039 13.2656 18.2609 11.375 16.1984 11.375C14.1359 11.375 13.8352 12.9648 13.8352 14.6406V21H9.83907V8.15234H13.6633V9.91406H13.7063C14.2648 8.92578 15.5539 7.85156 17.4875 7.85156C21.5266 7.85156 22.3 10.5156 22.3 13.9531V21H22.257ZM63.107 8.36719C63.0211 10.2578 61.732 12.793 59.1969 16.0586C56.5758 19.4531 54.3844 21.1719 52.5367 21.1719C51.4195 21.1719 50.4742 20.1406 49.7008 18.0781C48.1969 12.4922 47.5523 9.26953 46.3062 9.26953C46.1344 9.26953 45.6617 9.57031 44.8023 10.1719L43.9 9.01172C46.0914 7.03516 48.1969 4.88672 49.5289 4.75781C51.0328 4.62891 51.9781 5.66016 52.3219 7.85156C53.525 15.6289 54.0836 16.832 56.318 13.2656C57.1344 12.0195 57.5641 11.0312 57.65 10.3867C57.8219 8.41016 56.1031 8.53906 54.9 9.05469C55.8453 5.96094 57.65 4.45703 60.3141 4.54297C62.2906 4.58594 63.2359 5.875 63.107 8.36719Z" fill="#CDCDCD"/>
</g>
<defs>
<clipPath id="clip0_1_4">
<rect width="26" height="26" fill="white"/>
</clipPath>
</defs>
</svg>
