<svg width="26" height="26" viewBox="0 0 26 26" fill="none" xmlns="http://www.w3.org/2000/svg">
<g clip-path="url(#clip0_1_4)">
<path d="M-20.3438 12.75C-20.3438 18.0781 -24.2539 22.5039 -29.3672 23.2773V15.8438H-26.875L-26.4023 12.75H-29.3672V10.7734C-29.3672 9.91406 -28.9375 9.09766 -27.6055 9.09766H-26.2734V6.47656C-26.2734 6.47656 -27.4766 6.26172 -28.6797 6.26172C-31.0859 6.26172 -32.6758 7.76562 -32.6758 10.4297V12.75H-35.3828V15.8438H-32.6758V23.2773C-37.7891 22.5039 -41.6562 18.0781 -41.6562 12.75C-41.6562 6.86328 -36.8867 2.09375 -31 2.09375C-25.1133 2.09375 -20.3438 6.86328 -20.3438 12.75ZM21.3227 8.28125C21.3227 8.49609 21.3227 8.66797 21.3227 8.88281C21.3227 14.8555 16.8109 21.6875 8.51797 21.6875C5.93984 21.6875 3.57656 20.957 1.6 19.668C1.94375 19.7109 2.2875 19.7539 2.67422 19.7539C4.77969 19.7539 6.71328 19.0234 8.26015 17.8203C6.28359 17.7773 4.60781 16.4883 4.04922 14.6836C4.35 14.7266 4.60781 14.7695 4.90859 14.7695C5.29531 14.7695 5.725 14.6836 6.06875 14.5977C4.00625 14.168 2.45937 12.3633 2.45937 10.1719V10.1289C3.06094 10.4727 3.7914 10.6445 4.52187 10.6875C3.27578 9.87109 2.50234 8.49609 2.50234 6.94922C2.50234 6.08984 2.71719 5.31641 3.1039 4.67188C5.33828 7.37891 8.68984 9.18359 12.4281 9.39844C12.3422 9.05469 12.2992 8.71094 12.2992 8.36719C12.2992 5.875 14.3187 3.85547 16.8109 3.85547C18.1 3.85547 19.2602 4.37109 20.1195 5.27344C21.1078 5.05859 22.0961 4.67188 22.9555 4.15625C22.6117 5.23047 21.9242 6.08984 20.9789 6.64844C21.8812 6.5625 22.7836 6.30469 23.557 5.96094C22.9555 6.86328 22.182 7.63672 21.3227 8.28125ZM54.825 7.80859C57.532 7.80859 59.7664 10.043 59.7664 12.75C59.7664 15.5 57.532 17.6914 54.825 17.6914C52.075 17.6914 49.8836 15.5 49.8836 12.75C49.8836 10.043 52.075 7.80859 54.825 7.80859ZM54.825 15.9727C56.5867 15.9727 58.0047 14.5547 58.0047 12.75C58.0047 10.9883 56.5867 9.57031 54.825 9.57031C53.0203 9.57031 51.6023 10.9883 51.6023 12.75C51.6023 14.5547 53.0633 15.9727 54.825 15.9727ZM61.0984 7.63672C61.0984 8.28125 60.5828 8.79688 59.9383 8.79688C59.2937 8.79688 58.7781 8.28125 58.7781 7.63672C58.7781 6.99219 59.2937 6.47656 59.9383 6.47656C60.5828 6.47656 61.0984 6.99219 61.0984 7.63672ZM64.3641 8.79688C64.45 10.3867 64.45 15.1562 64.3641 16.7461C64.2781 18.293 63.9344 19.625 62.8172 20.7852C61.7 21.9023 60.325 22.2461 58.7781 22.332C57.1883 22.418 52.4187 22.418 50.8289 22.332C49.282 22.2461 47.95 21.9023 46.7898 20.7852C45.6727 19.625 45.3289 18.293 45.243 16.7461C45.157 15.1562 45.157 10.3867 45.243 8.79688C45.3289 7.25 45.6727 5.875 46.7898 4.75781C47.95 3.64062 49.282 3.29688 50.8289 3.21094C52.4187 3.125 57.1883 3.125 58.7781 3.21094C60.325 3.29688 61.7 3.64062 62.8172 4.75781C63.9344 5.875 64.2781 7.25 64.3641 8.79688ZM62.3016 18.4219C62.8172 17.1758 62.6883 14.168 62.6883 12.75C62.6883 11.375 62.8172 8.36719 62.3016 7.07812C61.9578 6.26172 61.3133 5.57422 60.4969 5.27344C59.2078 4.75781 56.2 4.88672 54.825 4.88672C53.407 4.88672 50.3992 4.75781 49.1531 5.27344C48.2937 5.61719 47.6492 6.26172 47.3055 7.07812C46.7898 8.36719 46.9187 11.375 46.9187 12.75C46.9187 14.168 46.7898 17.1758 47.3055 18.4219C47.6492 19.2812 48.2937 19.9258 49.1531 20.2695C50.3992 20.7852 53.407 20.6562 54.825 20.6562C56.2 20.6562 59.2078 20.7852 60.4969 20.2695C61.3133 19.9258 62.0008 19.2812 62.3016 18.4219ZM90.3469 21H86.3508V8.15234H90.3469V21ZM88.3273 6.43359C87.0813 6.43359 86.05 5.35938 86.05 4.07031C86.05 2.82422 87.0813 1.79297 88.3273 1.79297C89.6164 1.79297 90.6477 2.82422 90.6477 4.07031C90.6477 5.35938 89.6164 6.43359 88.3273 6.43359ZM105.257 21H101.304V14.7695C101.304 13.2656 101.261 11.375 99.1984 11.375C97.1359 11.375 96.8352 12.9648 96.8352 14.6406V21H92.8391V8.15234H96.6633V9.91406H96.7063C97.2648 8.92578 98.5539 7.85156 100.488 7.85156C104.527 7.85156 105.3 10.5156 105.3 13.9531V21H105.257ZM146.107 8.36719C146.021 10.2578 144.732 12.793 142.197 16.0586C139.576 19.4531 137.384 21.1719 135.537 21.1719C134.42 21.1719 133.474 20.1406 132.701 18.0781C131.197 12.4922 130.552 9.26953 129.306 9.26953C129.134 9.26953 128.662 9.57031 127.802 10.1719L126.9 9.01172C129.091 7.03516 131.197 4.88672 132.529 4.75781C134.033 4.62891 134.978 5.66016 135.322 7.85156C136.525 15.6289 137.084 16.832 139.318 13.2656C140.134 12.0195 140.564 11.0312 140.65 10.3867C140.822 8.41016 139.103 8.53906 137.9 9.05469C138.845 5.96094 140.65 4.45703 143.314 4.54297C145.291 4.58594 146.236 5.875 146.107 8.36719Z" fill="#CDCDCD"/>
</g>
<defs>
<clipPath id="clip0_1_4">
<rect width="26" height="26" fill="white"/>
</clipPath>
</defs>
</svg>
