<svg width="26" height="26" viewBox="0 0 26 26" fill="none" xmlns="http://www.w3.org/2000/svg">
<g clip-path="url(#clip0_1_4)">
<path d="M-144.344 12.75C-144.344 18.0781 -148.254 22.5039 -153.367 23.2773V15.8438H-150.875L-150.402 12.75H-153.367V10.7734C-153.367 9.91406 -152.938 9.09766 -151.605 9.09766H-150.273V6.47656C-150.273 6.47656 -151.477 6.26172 -152.68 6.26172C-155.086 6.26172 -156.676 7.76562 -156.676 10.4297V12.75H-159.383V15.8438H-156.676V23.2773C-161.789 22.5039 -165.656 18.0781 -165.656 12.75C-165.656 6.86328 -160.887 2.09375 -155 2.09375C-149.113 2.09375 -144.344 6.86328 -144.344 12.75ZM-102.677 8.28125C-102.677 8.49609 -102.677 8.66797 -102.677 8.88281C-102.677 14.8555 -107.189 21.6875 -115.482 21.6875C-118.06 21.6875 -120.423 20.957 -122.4 19.668C-122.056 19.7109 -121.713 19.7539 -121.326 19.7539C-119.22 19.7539 -117.287 19.0234 -115.74 17.8203C-117.716 17.7773 -119.392 16.4883 -119.951 14.6836C-119.65 14.7266 -119.392 14.7695 -119.091 14.7695C-118.705 14.7695 -118.275 14.6836 -117.931 14.5977C-119.994 14.168 -121.541 12.3633 -121.541 10.1719V10.1289C-120.939 10.4727 -120.209 10.6445 -119.478 10.6875C-120.724 9.87109 -121.498 8.49609 -121.498 6.94922C-121.498 6.08984 -121.283 5.31641 -120.896 4.67188C-118.662 7.37891 -115.31 9.18359 -111.572 9.39844C-111.658 9.05469 -111.701 8.71094 -111.701 8.36719C-111.701 5.875 -109.681 3.85547 -107.189 3.85547C-105.9 3.85547 -104.74 4.37109 -103.88 5.27344C-102.892 5.05859 -101.904 4.67188 -101.045 4.15625C-101.388 5.23047 -102.076 6.08984 -103.021 6.64844C-102.119 6.5625 -101.216 6.30469 -100.443 5.96094C-101.045 6.86328 -101.818 7.63672 -102.677 8.28125ZM-69.175 7.80859C-66.468 7.80859 -64.2336 10.043 -64.2336 12.75C-64.2336 15.5 -66.468 17.6914 -69.175 17.6914C-71.925 17.6914 -74.1164 15.5 -74.1164 12.75C-74.1164 10.043 -71.925 7.80859 -69.175 7.80859ZM-69.175 15.9727C-67.4133 15.9727 -65.9953 14.5547 -65.9953 12.75C-65.9953 10.9883 -67.4133 9.57031 -69.175 9.57031C-70.9797 9.57031 -72.3977 10.9883 -72.3977 12.75C-72.3977 14.5547 -70.9367 15.9727 -69.175 15.9727ZM-62.9016 7.63672C-62.9016 8.28125 -63.4172 8.79688 -64.0617 8.79688C-64.7063 8.79688 -65.2219 8.28125 -65.2219 7.63672C-65.2219 6.99219 -64.7063 6.47656 -64.0617 6.47656C-63.4172 6.47656 -62.9016 6.99219 -62.9016 7.63672ZM-59.6359 8.79688C-59.55 10.3867 -59.55 15.1562 -59.6359 16.7461C-59.7219 18.293 -60.0656 19.625 -61.1828 20.7852C-62.3 21.9023 -63.675 22.2461 -65.2219 22.332C-66.8117 22.418 -71.5813 22.418 -73.1711 22.332C-74.718 22.2461 -76.05 21.9023 -77.2102 20.7852C-78.3273 19.625 -78.6711 18.293 -78.757 16.7461C-78.843 15.1562 -78.843 10.3867 -78.757 8.79688C-78.6711 7.25 -78.3273 5.875 -77.2102 4.75781C-76.05 3.64062 -74.718 3.29688 -73.1711 3.21094C-71.5813 3.125 -66.8117 3.125 -65.2219 3.21094C-63.675 3.29688 -62.3 3.64062 -61.1828 4.75781C-60.0656 5.875 -59.7219 7.25 -59.6359 8.79688ZM-61.6984 18.4219C-61.1828 17.1758 -61.3117 14.168 -61.3117 12.75C-61.3117 11.375 -61.1828 8.36719 -61.6984 7.07812C-62.0422 6.26172 -62.6867 5.57422 -63.5031 5.27344C-64.7922 4.75781 -67.8 4.88672 -69.175 4.88672C-70.593 4.88672 -73.6008 4.75781 -74.8469 5.27344C-75.7063 5.61719 -76.3508 6.26172 -76.6945 7.07812C-77.2102 8.36719 -77.0813 11.375 -77.0813 12.75C-77.0813 14.168 -77.2102 17.1758 -76.6945 18.4219C-76.3508 19.2812 -75.7063 19.9258 -74.8469 20.2695C-73.6008 20.7852 -70.593 20.6562 -69.175 20.6562C-67.8 20.6562 -64.7922 20.7852 -63.5031 20.2695C-62.6867 19.9258 -61.9992 19.2812 -61.6984 18.4219ZM-33.6531 21H-37.6492V8.15234H-33.6531V21ZM-35.6727 6.43359C-36.9187 6.43359 -37.95 5.35938 -37.95 4.07031C-37.95 2.82422 -36.9187 1.79297 -35.6727 1.79297C-34.3836 1.79297 -33.3523 2.82422 -33.3523 4.07031C-33.3523 5.35938 -34.3836 6.43359 -35.6727 6.43359ZM-18.743 21H-22.6961V14.7695C-22.6961 13.2656 -22.7391 11.375 -24.8016 11.375C-26.8641 11.375 -27.1648 12.9648 -27.1648 14.6406V21H-31.1609V8.15234H-27.3367V9.91406H-27.2937C-26.7352 8.92578 -25.4461 7.85156 -23.5125 7.85156C-19.4734 7.85156 -18.7 10.5156 -18.7 13.9531V21H-18.743ZM22.107 8.36719C22.0211 10.2578 20.732 12.793 18.1969 16.0586C15.5758 19.4531 13.3844 21.1719 11.5367 21.1719C10.4195 21.1719 9.47421 20.1406 8.70078 18.0781C7.19687 12.4922 6.55234 9.26953 5.30624 9.26953C5.13437 9.26953 4.66171 9.57031 3.80234 10.1719L2.89999 9.01172C5.0914 7.03516 7.19687 4.88672 8.5289 4.75781C10.0328 4.62891 10.9781 5.66016 11.3219 7.85156C12.525 15.6289 13.0836 16.832 15.318 13.2656C16.1344 12.0195 16.5641 11.0312 16.65 10.3867C16.8219 8.41016 15.1031 8.53906 13.9 9.05469C14.8453 5.96094 16.65 4.45703 19.3141 4.54297C21.2906 4.58594 22.2359 5.875 22.107 8.36719Z" fill="#CDCDCD"/>
</g>
<defs>
<clipPath id="clip0_1_4">
<rect width="26" height="26" fill="white"/>
</clipPath>
</defs>
</svg>
