<svg width="26" height="26" viewBox="0 0 26 26" fill="none" xmlns="http://www.w3.org/2000/svg">
<g clip-path="url(#clip0_1_4)">
<path d="M23.6562 12.75C23.6562 18.0781 19.7461 22.5039 14.6328 23.2773V15.8438H17.125L17.5977 12.75H14.6328V10.7734C14.6328 9.91406 15.0625 9.09766 16.3945 9.09766H17.7266V6.47656C17.7266 6.47656 16.5234 6.26172 15.3203 6.26172C12.9141 6.26172 11.3242 7.76562 11.3242 10.4297V12.75H8.61719V15.8438H11.3242V23.2773C6.21094 22.5039 2.34375 18.0781 2.34375 12.75C2.34375 6.86328 7.11328 2.09375 13 2.09375C18.8867 2.09375 23.6562 6.86328 23.6562 12.75ZM65.3227 8.28125C65.3227 8.49609 65.3227 8.66797 65.3227 8.88281C65.3227 14.8555 60.8109 21.6875 52.518 21.6875C49.9398 21.6875 47.5766 20.957 45.6 19.668C45.9437 19.7109 46.2875 19.7539 46.6742 19.7539C48.7797 19.7539 50.7133 19.0234 52.2602 17.8203C50.2836 17.7773 48.6078 16.4883 48.0492 14.6836C48.35 14.7266 48.6078 14.7695 48.9086 14.7695C49.2953 14.7695 49.725 14.6836 50.0687 14.5977C48.0062 14.168 46.4594 12.3633 46.4594 10.1719V10.1289C47.0609 10.4727 47.7914 10.6445 48.5219 10.6875C47.2758 9.87109 46.5023 8.49609 46.5023 6.94922C46.5023 6.08984 46.7172 5.31641 47.1039 4.67188C49.3383 7.37891 52.6898 9.18359 56.4281 9.39844C56.3422 9.05469 56.2992 8.71094 56.2992 8.36719C56.2992 5.875 58.3187 3.85547 60.8109 3.85547C62.1 3.85547 63.2602 4.37109 64.1195 5.27344C65.1078 5.05859 66.0961 4.67188 66.9555 4.15625C66.6117 5.23047 65.9242 6.08984 64.9789 6.64844C65.8812 6.5625 66.7836 6.30469 67.557 5.96094C66.9555 6.86328 66.182 7.63672 65.3227 8.28125ZM98.825 7.80859C101.532 7.80859 103.766 10.043 103.766 12.75C103.766 15.5 101.532 17.6914 98.825 17.6914C96.075 17.6914 93.8836 15.5 93.8836 12.75C93.8836 10.043 96.075 7.80859 98.825 7.80859ZM98.825 15.9727C100.587 15.9727 102.005 14.5547 102.005 12.75C102.005 10.9883 100.587 9.57031 98.825 9.57031C97.0203 9.57031 95.6023 10.9883 95.6023 12.75C95.6023 14.5547 97.0633 15.9727 98.825 15.9727ZM105.098 7.63672C105.098 8.28125 104.583 8.79688 103.938 8.79688C103.294 8.79688 102.778 8.28125 102.778 7.63672C102.778 6.99219 103.294 6.47656 103.938 6.47656C104.583 6.47656 105.098 6.99219 105.098 7.63672ZM108.364 8.79688C108.45 10.3867 108.45 15.1562 108.364 16.7461C108.278 18.293 107.934 19.625 106.817 20.7852C105.7 21.9023 104.325 22.2461 102.778 22.332C101.188 22.418 96.4187 22.418 94.8289 22.332C93.282 22.2461 91.95 21.9023 90.7898 20.7852C89.6727 19.625 89.3289 18.293 89.243 16.7461C89.157 15.1562 89.157 10.3867 89.243 8.79688C89.3289 7.25 89.6727 5.875 90.7898 4.75781C91.95 3.64062 93.282 3.29688 94.8289 3.21094C96.4187 3.125 101.188 3.125 102.778 3.21094C104.325 3.29688 105.7 3.64062 106.817 4.75781C107.934 5.875 108.278 7.25 108.364 8.79688ZM106.302 18.4219C106.817 17.1758 106.688 14.168 106.688 12.75C106.688 11.375 106.817 8.36719 106.302 7.07812C105.958 6.26172 105.313 5.57422 104.497 5.27344C103.208 4.75781 100.2 4.88672 98.825 4.88672C97.407 4.88672 94.3992 4.75781 93.1531 5.27344C92.2937 5.61719 91.6492 6.26172 91.3055 7.07812C90.7898 8.36719 90.9187 11.375 90.9187 12.75C90.9187 14.168 90.7898 17.1758 91.3055 18.4219C91.6492 19.2812 92.2937 19.9258 93.1531 20.2695C94.3992 20.7852 97.407 20.6562 98.825 20.6562C100.2 20.6562 103.208 20.7852 104.497 20.2695C105.313 19.9258 106.001 19.2812 106.302 18.4219ZM134.347 21H130.351V8.15234H134.347V21ZM132.327 6.43359C131.081 6.43359 130.05 5.35938 130.05 4.07031C130.05 2.82422 131.081 1.79297 132.327 1.79297C133.616 1.79297 134.648 2.82422 134.648 4.07031C134.648 5.35938 133.616 6.43359 132.327 6.43359ZM149.257 21H145.304V14.7695C145.304 13.2656 145.261 11.375 143.198 11.375C141.136 11.375 140.835 12.9648 140.835 14.6406V21H136.839V8.15234H140.663V9.91406H140.706C141.265 8.92578 142.554 7.85156 144.488 7.85156C148.527 7.85156 149.3 10.5156 149.3 13.9531V21H149.257ZM190.107 8.36719C190.021 10.2578 188.732 12.793 186.197 16.0586C183.576 19.4531 181.384 21.1719 179.537 21.1719C178.42 21.1719 177.474 20.1406 176.701 18.0781C175.197 12.4922 174.552 9.26953 173.306 9.26953C173.134 9.26953 172.662 9.57031 171.802 10.1719L170.9 9.01172C173.091 7.03516 175.197 4.88672 176.529 4.75781C178.033 4.62891 178.978 5.66016 179.322 7.85156C180.525 15.6289 181.084 16.832 183.318 13.2656C184.134 12.0195 184.564 11.0312 184.65 10.3867C184.822 8.41016 183.103 8.53906 181.9 9.05469C182.845 5.96094 184.65 4.45703 187.314 4.54297C189.291 4.58594 190.236 5.875 190.107 8.36719Z" fill="#CDCDCD"/>
</g>
<defs>
<clipPath id="clip0_1_4">
<rect width="26" height="26" fill="white"/>
</clipPath>
</defs>
</svg>
