<svg width="26" height="26" viewBox="0 0 26 26" fill="none" xmlns="http://www.w3.org/2000/svg">
<g clip-path="url(#clip0_1_4)">
<path d="M-62.3438 12.75C-62.3438 18.0781 -66.2539 22.5039 -71.3672 23.2773V15.8438H-68.875L-68.4023 12.75H-71.3672V10.7734C-71.3672 9.91406 -70.9375 9.09766 -69.6055 9.09766H-68.2734V6.47656C-68.2734 6.47656 -69.4766 6.26172 -70.6797 6.26172C-73.0859 6.26172 -74.6758 7.76562 -74.6758 10.4297V12.75H-77.3828V15.8438H-74.6758V23.2773C-79.7891 22.5039 -83.6562 18.0781 -83.6562 12.75C-83.6562 6.86328 -78.8867 2.09375 -73 2.09375C-67.1133 2.09375 -62.3438 6.86328 -62.3438 12.75ZM-20.6773 8.28125C-20.6773 8.49609 -20.6773 8.66797 -20.6773 8.88281C-20.6773 14.8555 -25.1891 21.6875 -33.482 21.6875C-36.0602 21.6875 -38.4234 20.957 -40.4 19.668C-40.0563 19.7109 -39.7125 19.7539 -39.3258 19.7539C-37.2203 19.7539 -35.2867 19.0234 -33.7398 17.8203C-35.7164 17.7773 -37.3922 16.4883 -37.9508 14.6836C-37.65 14.7266 -37.3922 14.7695 -37.0914 14.7695C-36.7047 14.7695 -36.275 14.6836 -35.9313 14.5977C-37.9938 14.168 -39.5406 12.3633 -39.5406 10.1719V10.1289C-38.9391 10.4727 -38.2086 10.6445 -37.4781 10.6875C-38.7242 9.87109 -39.4977 8.49609 -39.4977 6.94922C-39.4977 6.08984 -39.2828 5.31641 -38.8961 4.67188C-36.6617 7.37891 -33.3102 9.18359 -29.5719 9.39844C-29.6578 9.05469 -29.7008 8.71094 -29.7008 8.36719C-29.7008 5.875 -27.6813 3.85547 -25.1891 3.85547C-23.9 3.85547 -22.7398 4.37109 -21.8805 5.27344C-20.8922 5.05859 -19.9039 4.67188 -19.0445 4.15625C-19.3883 5.23047 -20.0758 6.08984 -21.0211 6.64844C-20.1188 6.5625 -19.2164 6.30469 -18.443 5.96094C-19.0445 6.86328 -19.818 7.63672 -20.6773 8.28125ZM12.825 7.80859C15.532 7.80859 17.7664 10.043 17.7664 12.75C17.7664 15.5 15.532 17.6914 12.825 17.6914C10.075 17.6914 7.88359 15.5 7.88359 12.75C7.88359 10.043 10.075 7.80859 12.825 7.80859ZM12.825 15.9727C14.5867 15.9727 16.0047 14.5547 16.0047 12.75C16.0047 10.9883 14.5867 9.57031 12.825 9.57031C11.0203 9.57031 9.60234 10.9883 9.60234 12.75C9.60234 14.5547 11.0633 15.9727 12.825 15.9727ZM19.0984 7.63672C19.0984 8.28125 18.5828 8.79688 17.9383 8.79688C17.2937 8.79688 16.7781 8.28125 16.7781 7.63672C16.7781 6.99219 17.2937 6.47656 17.9383 6.47656C18.5828 6.47656 19.0984 6.99219 19.0984 7.63672ZM22.3641 8.79688C22.45 10.3867 22.45 15.1562 22.3641 16.7461C22.2781 18.293 21.9344 19.625 20.8172 20.7852C19.7 21.9023 18.325 22.2461 16.7781 22.332C15.1883 22.418 10.4187 22.418 8.8289 22.332C7.28203 22.2461 5.95 21.9023 4.78984 20.7852C3.67265 19.625 3.3289 18.293 3.24297 16.7461C3.15703 15.1562 3.15703 10.3867 3.24297 8.79688C3.3289 7.25 3.67265 5.875 4.78984 4.75781C5.95 3.64062 7.28203 3.29688 8.8289 3.21094C10.4187 3.125 15.1883 3.125 16.7781 3.21094C18.325 3.29688 19.7 3.64062 20.8172 4.75781C21.9344 5.875 22.2781 7.25 22.3641 8.79688ZM20.3016 18.4219C20.8172 17.1758 20.6883 14.168 20.6883 12.75C20.6883 11.375 20.8172 8.36719 20.3016 7.07812C19.9578 6.26172 19.3133 5.57422 18.4969 5.27344C17.2078 4.75781 14.2 4.88672 12.825 4.88672C11.407 4.88672 8.39922 4.75781 7.15312 5.27344C6.29375 5.61719 5.64922 6.26172 5.30547 7.07812C4.78984 8.36719 4.91875 11.375 4.91875 12.75C4.91875 14.168 4.78984 17.1758 5.30547 18.4219C5.64922 19.2812 6.29375 19.9258 7.15312 20.2695C8.39922 20.7852 11.407 20.6562 12.825 20.6562C14.2 20.6562 17.2078 20.7852 18.4969 20.2695C19.3133 19.9258 20.0008 19.2812 20.3016 18.4219ZM48.3469 21H44.3508V8.15234H48.3469V21ZM46.3273 6.43359C45.0813 6.43359 44.05 5.35938 44.05 4.07031C44.05 2.82422 45.0813 1.79297 46.3273 1.79297C47.6164 1.79297 48.6477 2.82422 48.6477 4.07031C48.6477 5.35938 47.6164 6.43359 46.3273 6.43359ZM63.257 21H59.3039V14.7695C59.3039 13.2656 59.2609 11.375 57.1984 11.375C55.1359 11.375 54.8352 12.9648 54.8352 14.6406V21H50.8391V8.15234H54.6633V9.91406H54.7063C55.2648 8.92578 56.5539 7.85156 58.4875 7.85156C62.5266 7.85156 63.3 10.5156 63.3 13.9531V21H63.257ZM104.107 8.36719C104.021 10.2578 102.732 12.793 100.197 16.0586C97.5758 19.4531 95.3844 21.1719 93.5367 21.1719C92.4195 21.1719 91.4742 20.1406 90.7008 18.0781C89.1969 12.4922 88.5523 9.26953 87.3062 9.26953C87.1344 9.26953 86.6617 9.57031 85.8023 10.1719L84.9 9.01172C87.0914 7.03516 89.1969 4.88672 90.5289 4.75781C92.0328 4.62891 92.9781 5.66016 93.3219 7.85156C94.525 15.6289 95.0836 16.832 97.318 13.2656C98.1344 12.0195 98.5641 11.0312 98.65 10.3867C98.8219 8.41016 97.1031 8.53906 95.9 9.05469C96.8453 5.96094 98.65 4.45703 101.314 4.54297C103.291 4.58594 104.236 5.875 104.107 8.36719Z" fill="#CDCDCD"/>
</g>
<defs>
<clipPath id="clip0_1_4">
<rect width="26" height="26" fill="white"/>
</clipPath>
</defs>
</svg>
